:version 1.10
:name ASF
:units
  mass 1
  length 1
  angle deg
:documentation
  ASF file generated by Kaydara
:root
  axis xyz
  order  tx ty tz rx ry rz
  position 0 0 0
  orientation 0 0 0
:bonedata
  begin
    id 1
    name RightUpLegDummy
    direction -0.718183 -0.695806 0.00816078
    length 4.904
    axis 0 0 0 xyz
  end
  begin
    id 2
    name RightUpLeg
    direction -0.0736652 -0.994202 0.0783343
    length 17.4976
    axis -2.72909 -3.00389 -4.00133 xyz
    dof rx ry rz
  end
  begin
    id 3
    name RightLeg
    direction -0.0389037 -0.994596 -0.0962598
    length 16.5821
    axis 3.95836 -18.5909 -4.46993 xyz
    dof rx ry rz
  end
  begin
    id 4
    name RightFoot
    direction -0.311643 -0.412678 0.855906
    length 3.77069
    axis -1.99483 -18.8351 -3.27644 xyz
    dof rx ry rz
  end
  begin
    id 5
    name RightToes
    direction -0.317852 0.0389852 0.947339
    length 3.85082
    axis -2.00228 -18.1713 -3.25211 xyz
    dof rx ry rz
  end
  begin
    id 6
    name SpineDummy
    direction 8.3039e-015 1 4.44677e-016
    length 4.6813
    axis 0 0 0 xyz
  end
  begin
    id 7
    name Spine
    direction -0.000262373 0.999988 0.00493267
    length 10.1015
    axis -0.00246081 0.00062579 0.0150362 xyz
    dof rx ry rz
  end
  begin
    id 8
    name Spine1
    direction 0 0 0
    length 0
    axis -0.00349562 0.000650293 0.0196666 xyz
    dof rx ry rz
  end
  begin
    id 9
    name HEadDummy
    direction -0.000343232 0.999999 0.00123745
    length 3.43865
    axis -0.00349562 0.000650293 0.0196666 xyz
  end
  begin
    id 10
    name HEad
    direction -0.0461221 0.980933 0.188796
    length 5.12695
    axis -0.00351404 -7.04812 0.0199272 xyz
    dof rx ry rz
  end
  begin
    id 11
    name LeftShoulder1Dummy
    direction 0.998904 -0.0399089 -0.0244534
    length 3.5433
    axis -0.00349562 0.000650293 0.0196666 xyz
  end
  begin
    id 12
    name LeftShoulder1
    direction 0.99951 1.64443e-005 0.0312999
    length 4.05031
    axis -0.00349562 0.000650293 0.0196666 xyz
    dof rx ry rz
  end
  begin
    id 13
    name LeftArm
    direction 0.984791 0.0515299 0.165927
    length 12.9126
    axis -64.823 -10.7743 5.20463 xyz
    dof rx ry rz
  end
  begin
    id 14
    name LeftForeArm
    direction 0.984968 0.0534808 0.16425
    length 10.8596
    axis -30.0462 -7.70601 1.87451 xyz
    dof rx ry rz
  end
  begin
    id 15
    name LeftHand
    direction 0.975871 0.0289682 0.216418
    length 6.62295
    axis -20.1348 -6.98077 1.86072 xyz
    dof rx ry rz
  end
  begin
    id 16
    name RightShoulderDummy
    direction -0.998877 -0.0405946 -0.0244307
    length 3.5433
    axis -0.00349562 0.000650293 0.0196666 xyz
  end
  begin
    id 17
    name RightShoulder
    direction -0.998933 -0.0249743 -0.0388558
    length 4.05031
    axis -0.0205316 -4.02113 1.41395 xyz
    dof rx ry rz
  end
  begin
    id 18
    name RightArm
    direction -0.997559 0.068664 0.0127103
    length 12.9638
    axis -67.3882 1.84188 -6.15987 xyz
    dof rx ry rz
  end
  begin
    id 19
    name RightForeArm
    direction -0.991508 0.0912848 0.0926241
    length 10.8312
    axis -22.1975 3.41087 -4.28711 xyz
    dof rx ry rz
  end
  begin
    id 20
    name RightHand
    direction -0.989262 0.0600788 0.133232
    length 6.57864
    axis -12.2911 2.17515 -4.39675 xyz
    dof rx ry rz
  end
  begin
    id 21
    name LeftUpLegDummy
    direction 0.718183 -0.695806 0.00816078
    length 4.904
    axis 0 0 0 xyz
  end
  begin
    id 22
    name LeftUpLeg
    direction 0.0831398 -0.99469 0.0606531
    length 17.4976
    axis -1.71016 2.29552 4.63832 xyz
    dof rx ry rz
  end
  begin
    id 23
    name LeftLeg
    direction 0.0498442 -0.991778 -0.117862
    length 16.5821
    axis 5.13757 15.5727 5.13348 xyz
    dof rx ry rz
  end
  begin
    id 24
    name LeftFoot
    direction 0.269026 -0.433896 0.85986
    length 3.77069
    axis -0.576502 15.6961 4.10267 xyz
    dof rx ry rz
  end
  begin
    id 25
    name LeftToes
    direction 0.277311 0.0251143 0.960452
    length 3.85048
    axis -0.576502 15.6961 4.10267 xyz
    dof rx ry rz
  end
:hierarchy
  begin
    root RightUpLegDummy SpineDummy LeftUpLegDummy
    RightUpLegDummy RightUpLeg
    RightUpLeg RightLeg
    RightLeg RightFoot
    RightFoot RightToes
    SpineDummy Spine
    Spine Spine1
    Spine1 HEadDummy LeftShoulder1Dummy RightShoulderDummy
    HEadDummy HEad
    LeftShoulder1Dummy LeftShoulder1
    LeftShoulder1 LeftArm
    LeftArm LeftForeArm
    LeftForeArm LeftHand
    RightShoulderDummy RightShoulder
    RightShoulder RightArm
    RightArm RightForeArm
    RightForeArm RightHand
    LeftUpLegDummy LeftUpLeg
    LeftUpLeg LeftLeg
    LeftLeg LeftFoot
    LeftFoot LeftToes
  end

:SAMPLES-PER-SECOND 30
:FULLY-SPECIFIED
:DEGREES
48
root  -6.43931 40.7509 103.373 179.902 8.93399 179.828
RightUpLeg  0.284916 -0.0112543 2.24137
RightLeg  2.26126 -3.74312 0.545128
RightFoot  -2.00535 0.304923 -3.05265
RightToes  3.97569e-016 -3.18055e-015 -2.98177e-016
Spine  -2.82873 0.852388 -0.272185
Spine1  10.4425 0.590785 1.50717
HEad  -5.53603 -1.54008 -1.74392
LeftShoulder1  -3.88251e-019 9.70628e-020 -3.87848e-018
LeftArm  -29.5323 52.8687 -72.3956
LeftForeArm  1.51455 -13.1129 -2.15235
LeftHand  -0.625774 -4.34092 8.0084
RightShoulder  9.16322 11.3185 41.6359
RightArm  10.164 -40.457 10.0153
RightForeArm  7.41586 14.9055 -5.14293
RightHand  -0.848817 2.91549 -11.7472
LeftUpLeg  2.13837 -1.55124 -2.1163
LeftLeg  0.00761649 9.52029 0.555817
LeftFoot  -1.14072 -0.107254 1.06314
LeftToes  4.86531e-011 4.41684e-011 -2.86034e-011
49
root  -6.38318 40.7487 103.378 179.968 8.50244 179.95
RightUpLeg  0.419077 0.042309 2.43582
RightLeg  2.04008 -4.24634 0.688844
RightFoot  -1.95611 0.315767 -3.17671
RightToes  3.97569e-016 -3.18055e-015 -2.98177e-016
Spine  -2.31395 0.649967 -0.327985
Spine1  9.77794 0.376978 1.53908
HEad  -5.28234 -1.42568 -1.57778
LeftShoulder1  -3.88251e-019 9.70628e-020 -3.87848e-018
LeftArm  -29.5013 52.5914 -72.3812
LeftForeArm  1.7466 -12.7156 -2.23521
LeftHand  -0.65388 -4.22897 8.45472
RightShoulder  9.13299 11.302 41.5346
RightArm  9.7481 -40.621 10.1043
RightForeArm  7.96234 14.4516 -4.83643
RightHand  -0.826815 2.51132 -12.0072
LeftUpLeg  1.8547 -1.46883 -1.9
LeftLeg  0.319047 9.04354 0.737856
LeftFoot  -1.16568 -0.105825 1.0556
LeftToes  4.86531e-011 4.41684e-011 -2.86034e-011
50
root  -6.32307 40.7454 103.414 -179.876 7.38387 -179.824
RightUpLeg  0.600842 0.187128 2.78155
RightLeg  1.62579 -5.53016 0.868997
RightFoot  -1.89664 0.315772 -3.19958
RightToes  3.97569e-016 -3.18055e-015 -2.98177e-016
Spine  -1.55648 0.0925882 -0.536646
Spine1  8.84079 -0.249964 1.7419
HEad  -5.18126 -1.4014 -1.44569
LeftShoulder1  -3.88251e-019 9.70628e-020 -3.87848e-018
LeftArm  -29.4153 52.4328 -72.3513
LeftForeArm  1.88592 -12.6345 -2.30966
LeftHand  -0.664841 -3.92315 8.87131
RightShoulder  9.13123 11.3004 41.5302
RightArm  9.27953 -40.6901 10.2395
RightForeArm  8.5901 14.0275 -4.62786
RightHand  -0.851847 2.49819 -12.3862
LeftUpLeg  1.19868 -1.23117 -1.47757
LeftLeg  0.912406 7.68335 0.944938
LeftFoot  -1.39344 -0.0968323 0.965067
LeftToes  4.86531e-011 4.41684e-011 -2.86034e-011
51
root  -6.25763 40.7345 103.416 -179.624 6.9205 -179.656
RightUpLeg  0.353142 0.439226 3.12826
RightLeg  1.77323 -6.26686 0.746273
RightFoot  -2.21053 0.297676 -3.08886
RightToes  3.97569e-016 -3.18055e-015 -2.98177e-016
Spine  -1.20684 -0.199837 -0.821392
Spine1  8.2336 -0.616364 2.00315
HEad  -4.92868 -1.24531 -1.53332
LeftShoulder1  -3.88251e-019 9.70628e-020 -3.87848e-018
LeftArm  -29.3881 52.5241 -72.4637
LeftForeArm  1.82051 -12.9593 -2.34605
LeftHand  -0.634779 -3.60373 8.77919
RightShoulder  9.13929 11.3041 41.559
RightArm  8.78395 -40.6211 10.3629
RightForeArm  9.23299 13.6661 -4.53476
RightHand  -0.899283 3.00863 -12.3063
LeftUpLeg  0.699728 -0.886533 -1.05437
LeftLeg  1.32646 6.79853 0.928416
LeftFoot  -1.71797 -0.0498998 0.471593
LeftToes  4.86531e-011 4.41684e-011 -2.86034e-011
52
root  -6.17389 40.7072 103.354 -179.412 7.77473 -179.613
RightUpLeg  -0.404939 0.691672 3.36069
RightLeg  2.92551 -5.6992 0.237705
RightFoot  -3.0819 0.263914 -2.94022
RightToes  3.97569e-016 -3.18055e-015 -2.98177e-016
Spine  -1.32573 0.0105688 -1.13141
Spine1  8.10455 -0.444004 2.17961
HEad  -4.39173 -0.733625 -1.98842
LeftShoulder1  -3.88251e-019 9.70628e-020 -3.87848e-018
LeftArm  -29.2688 53.055 -72.5562
LeftForeArm  1.52807 -13.778 -2.3336
LeftHand  -0.592312 -3.47841 8.32494
RightShoulder  9.09579 11.2827 41.407
RightArm  8.334 -40.6418 10.678
RightForeArm  9.55169 13.4542 -4.5394
RightHand  -0.890551 3.26574 -11.8341
LeftUpLeg  0.635781 -0.49293 -0.750846
LeftLeg  1.62732 7.23225 0.788592
LeftFoot  -2.09928 -6.90288e-005 -0.0575086
LeftToes  4.86531e-011 4.41684e-011 -2.86034e-011
53
root  -6.05746 40.6566 103.278 -179.512 8.9128 -179.601
RightUpLeg  -1.09686 0.790032 3.53418
RightLeg  4.6435 -4.7132 -0.335482
RightFoot  -4.27999 0.225872 -2.79362
RightToes  3.97569e-016 -3.18055e-015 -2.98177e-016
Spine  -1.23737 0.233053 -1.51292
Spine1  8.21346 -0.262784 2.32599
HEad  -4.2607 -0.0151509 -2.89806
LeftShoulder1  -3.88251e-019 9.70628e-020 -3.87848e-018
LeftArm  -28.8241 53.7955 -72.3586
LeftForeArm  1.1114 -14.884 -2.28623
LeftHand  -0.576134 -3.521 8.06473
RightShoulder  8.99531 11.2332 41.0547
RightArm  8.31139 -40.9534 11.3343
RightForeArm  9.05975 13.7561 -4.72157
RightHand  -0.837049 2.97155 -11.5114
LeftUpLeg  0.721115 -0.0771306 -0.473104
LeftLeg  2.44876 7.93675 0.902671
LeftFoot  -2.74889 0.0173236 -0.271464
LeftToes  4.86531e-011 4.41684e-011 -2.86034e-011
54
root  -5.90864 40.5807 103.238 179.955 9.283 -179.539
RightUpLeg  -1.28319 0.507851 3.7264
RightLeg  6.40942 -4.13112 -0.785757
RightFoot  -5.49909 0.188319 -2.6154
RightToes  3.97569e-016 -3.18055e-015 -2.98177e-016
Spine  -0.591848 0.0929686 -1.90783
Spine1  8.55327 -0.49465 2.60413
HEad  -5.24985 0.67144 -4.16936
LeftShoulder1  -3.88251e-019 9.70628e-020 -3.87848e-018
LeftArm  -28.0614 54.1465 -71.882
LeftForeArm  0.798114 -15.6685 -2.26138
LeftHand  -0.591764 -3.63213 8.17554
RightShoulder  8.89051 11.1799 40.6882
RightArm  9.05181 -41.382 12.2215
RightForeArm  7.70138 14.6707 -5.09048
RightHand  -0.813932 2.71561 -11.5353
LeftUpLeg  0.630758 0.324433 -0.0987278
LeftLeg  4.17149 7.68344 1.48785
LeftFoot  -3.73147 0.0415392 -0.634527
LeftToes  4.86531e-011 4.41684e-011 -2.86034e-011
55
root  -5.7473 40.4711 103.203 179.185 9.22551 -179.401
RightUpLeg  -1.1804 -0.184877 3.98963
RightLeg  8.23177 -3.56534 -1.2509
RightFoot  -6.66924 0.157171 -2.46603
RightToes  3.97569e-016 -3.18055e-015 -2.98177e-016
Spine  0.145308 -0.173997 -1.80929
Spine1  9.26607 -0.823259 2.87983
HEad  -6.78285 1.34589 -5.53089
LeftShoulder1  -3.88251e-019 9.70628e-020 -3.87848e-018
LeftArm  -27.2755 53.9379 -71.3091
LeftForeArm  0.876926 -15.74 -2.33046
LeftHand  -0.615504 -3.80973 8.332
RightShoulder  8.8084 11.137 40.4014
RightArm  10.0349 -41.579 13.2007
RightForeArm  6.56935 15.494 -5.36569
RightHand  -0.843458 2.85141 -11.759
LeftUpLeg  0.295489 0.839849 0.332899
LeftLeg  6.68604 6.74538 2.54368
LeftFoot  -4.86284 0.0909682 -1.44848
LeftToes  4.86531e-011 4.41684e-011 -2.86034e-011
56
root  -5.5855 40.2943 103.118 178.476 9.60971 -179.175
RightUpLeg  -1.38498 -0.780187 4.37994
RightLeg  10.6503 -2.6248 -1.9441
RightFoot  -8.08135 0.129231 -2.41078
RightToes  3.97569e-016 -3.18055e-015 -2.98177e-016
Spine  0.561414 -0.215385 -0.748092
Spine1  10.0706 -0.742976 2.80665
HEad  -7.51411 2.12245 -6.76907
LeftShoulder1  -3.88251e-019 9.70628e-020 -3.87848e-018
LeftArm  -26.6551 53.72 -70.7053
LeftForeArm  1.38338 -15.4747 -2.42402
LeftHand  -0.632478 -4.03249 8.35408
RightShoulder  8.74148 11.1027 40.1647
RightArm  10.0214 -41.3938 14.2281
RightForeArm  7.52903 15.3877 -5.07428
RightHand  -0.885423 3.01317 -12.1105
LeftUpLeg  -0.446504 2.08039 0.741537
LeftLeg  10.1134 5.63421 4.18865
LeftFoot  -6.31757 0.11348 -2.19251
LeftToes  4.86531e-011 4.41684e-011 -2.86034e-011
57
root  -5.4219 40.0403 102.995 177.976 10.3245 -178.659
RightUpLeg  -1.95346 -1.09858 5.11327
RightLeg  13.5487 -1.60436 -2.75539
RightFoot  -9.80676 0.100264 -2.44705
RightToes  3.97569e-016 -3.18055e-015 -2.98177e-016
Spine  0.95364 -0.0910567 1.23968
Spine1  10.4439 -0.329835 2.56874
HEad  -7.0847 2.90169 -7.73911
LeftShoulder1  -3.88251e-019 9.70628e-020 -3.87848e-018
LeftArm  -26.2079 53.9844 -70.1834
LeftForeArm  1.97276 -15.577 -2.35496
LeftHand  -0.649073 -4.17264 8.44213
RightShoulder  8.70009 11.0824 40.0156
RightArm  8.81595 -40.8309 15.2192
RightForeArm  10.8008 14.328 -4.26185
RightHand  -0.897704 2.92909 -12.3953
LeftUpLeg  -1.93219 3.37452 1.38859
LeftLeg  14.8028 4.67092 6.36479
LeftFoot  -8.30699 0.0991285 -2.95777
LeftToes  4.86531e-011 4.41684e-011 -2.86034e-011
